# xmcd
#
# Track frame offsets:
#	150
#	15100
#	27952
#	42575
#	55782
#	69890
#	83685
#	96525
#	111232
#	127015
#	143377
#	156662
#	167077
#	178072
#	192484
#
# Disc length: 2738 seconds
#
# Revision: 3
# Processed by: cddbd v1.5.2PL0 Copyright (c) Steve Scherf et al.
# Submitted via: audiograbber 1.83.01
#
DISCID=c90ab00f
DTITLE=Jim Lauderdale - Persimmons
DYEAR=1996
DGENRE=Folk/Country
TTITLE0=Life By Numbers
TTITLE1=Do You Like It
TTITLE2=And That's A Lot
TTITLE3=Am I Only Dreaming This
TTITLE4=Don't Leave Your Light Low
TTITLE5=Seems Like You're Gonna Take Me Back
TTITLE6=I Thought We Had A Deal
TTITLE7=Tears So Strong
TTITLE8=Please Pardon Me
TTITLE9=Some Things Are Too Good To Last
TTITLE10=Nobody's Perfect
TTITLE11=Had A Little Time
TTITLE12=That's Not Right Babe
TTITLE13=Optimistic Messenger
TTITLE14=Jupiter's Rising
EXTD=
EXTT0=
EXTT1=
EXTT2=
EXTT3=
EXTT4=
EXTT5=
EXTT6=
EXTT7=
EXTT8=
EXTT9=
EXTT10=
EXTT11=
EXTT12=
EXTT13=
EXTT14=
PLAYORDER=
